<?xml version="1.0" encoding="UTF-8"?>
<svg width="1735px" height="1038px" viewBox="0 0 1735 1038" version="1.1" xmlns="http://www.w3.org/2000/svg" xmlns:xlink="http://www.w3.org/1999/xlink">
    <g id="Page-1" stroke="none" stroke-width="1" fill="none" fill-rule="evenodd">
        <g id="RM" transform="translate(-64.000000, 8.000000)" fill="#0357FF" fill-rule="nonzero">
            <path d="M190.32,780 C188.933333,770.986667 187.72,759.546667 186.68,745.68 C185.64,731.813333 185.12,713.786667 185.12,691.6 L185.120514,55.7858568 C185.135579,50.2343967 185.482074,41.8657778 186.16,30.68 C186.853333,19.24 189.626667,7.97333333 194.48,-3.12 L194.48,-3.12 L64.48,-3.12 C66.56,3.12 68.2933333,11.96 69.68,23.4 C71.0666667,34.84 71.76,50.6133333 71.76,70.72 L71.76,70.72 L71.76,702 C71.76,724.186667 71.4133333,741.173333 70.72,752.96 C70.0266667,764.746667 68.9866667,773.76 67.6,780 L67.6,780 L190.32,780 Z M407.68,305.76 C418.08,302.986667 427.613333,300.213333 436.28,297.44 C444.946667,294.666667 453.093333,291.546667 460.72,288.08 C496.08,272.133333 521.906667,252.72 538.2,229.84 C554.493333,206.96 562.64,178.88 562.64,145.6 C562.64,118.56 555.013333,93.9466667 539.76,71.76 C523.12,48.1866667 501.973333,30.8533333 476.32,19.76 C470.08,16.9866667 461.586667,14.2133333 450.84,11.44 C440.093333,8.66666667 426.053333,6.24 408.72,4.16 C419.813333,18.72 428.653333,37.2666667 435.24,59.8 C441.826667,82.3333333 445.12,109.893333 445.12,142.48 C445.12,211.813333 432.64,266.24 407.68,305.76 Z M579.28,796.64 C573.733333,786.933333 567.84,770.986667 561.6,748.8 C555.36,726.613333 549.813333,691.6 544.96,643.76 C537.333333,559.173333 516.533333,499.2 482.56,463.84 C457.6,438.88 422.586667,421.893333 377.52,412.88 C394.16,442.693333 405.6,484.986667 411.84,539.76 L411.84,539.76 L424.32,641.68 C428.48,675.653333 445.466667,708.586667 475.28,740.48 C503.706667,769.6 538.373333,788.32 579.28,796.64 Z M1399.84,780 C1397.76,770.986667 1396.2,759.546667 1395.16,745.68 C1394.12,731.813333 1393.6,713.786667 1393.6,691.6 L1393.60051,52.6658568 C1393.61558,47.1143967 1393.96207,38.7457778 1394.64,27.56 C1395.33333,16.12 1398.45333,4.50666667 1404,-7.28 L1404,-7.28 L1274,-7.28 C1276.08,-0.346666667 1277.81333,8.84 1279.2,20.28 C1280.58667,31.72 1281.28,47.4933333 1281.28,67.6 L1281.28,67.6 L1281.28,700.96 C1281.28,723.146667 1280.93333,740.306667 1280.24,752.44 C1279.54667,764.573333 1278.50667,773.76 1277.12,780 L1277.12,780 L1399.84,780 Z M1024.4,780 C1034.10667,751.573333 1043.46667,724.186667 1052.48,697.84 C1061.49333,671.493333 1070.16,645.84 1078.48,620.88 L1078.48,620.88 L1047.28,542.88 C1023.01333,481.866667 996.84,412.533333 968.76,334.88 C940.68,257.226667 910.693333,170.906667 878.8,75.92 C872.56,58.5866667 867.88,45.24 864.76,35.88 C861.64,26.52 859.386667,19.5866667 858,15.08 C856.613333,10.5733333 855.746667,7.45333333 855.4,5.72 C855.053333,3.98666667 854.88,2.08 854.88,0 C854.88,-3.46666667 855.226667,-5.89333333 855.92,-7.28 L855.92,-7.28 L679.12,-7.28 C697.146667,6.58666667 712.92,22.0133333 726.44,39 C739.96,55.9866667 751.92,73.4933333 762.32,91.52 C767.866667,108.16 773.76,124.28 780,139.88 C786.24,155.48 792.133333,170.906667 797.68,186.16 C817.093333,234 833.733333,276.12 847.6,312.52 C861.466667,348.92 873.253333,379.253333 882.96,403.52 C903.76,459.68 922.653333,509.946667 939.64,554.32 C956.626667,598.693333 971.36,637.866667 983.84,671.84 C985.92,677.386667 988.866667,685.186667 992.68,695.24 C996.493333,705.293333 1000.48,715.866667 1004.64,726.96 C1008.8,738.053333 1012.61333,748.453333 1016.08,758.16 C1019.54667,767.866667 1022.32,775.146667 1024.4,780 Z M762.32,780 C744.293333,766.133333 728.52,750.533333 715,733.2 C701.48,715.866667 689.52,698.186667 679.12,680.16 L679.12,680.16 L679.12,780 L762.32,780 Z M1676.48,852.8 C1678.56,851.413333 1681.16,850.2 1684.28,849.16 C1687.4,848.12 1690,846.906667 1692.08,845.52 C1742.69333,810.853333 1772.16,777.92 1780.48,746.72 C1782.56,739.093333 1784.64,723.32 1786.72,699.4 C1788.8,675.48 1789.84,637.52 1789.84,585.52 L1789.84,585.52 L1788.8,56.16 C1788.8,50.6133333 1789.14667,42.4666667 1789.84,31.72 C1790.53333,20.9733333 1793.30667,10.4 1798.16,0 L1798.16,0 L1676.48,0 C1678.56,6.24 1680.29333,14.9066667 1681.68,26 C1683.06667,37.0933333 1683.76,51.6533333 1683.76,69.68 L1683.76,69.68 L1683.76,733.2 C1683.06667,745.68 1682.72,757.466667 1682.72,768.56 L1682.72,768.56 L1682.72,810.16 C1681.33333,826.106667 1679.25333,840.32 1676.48,852.8 Z M1539.2,880.88 C1539.89333,875.333333 1541.45333,870.306667 1543.88,865.8 C1546.30667,861.293333 1549.25333,856.266667 1552.72,850.72 C1564.50667,834.773333 1570.4,820.906667 1570.4,809.12 C1570.4,798.72 1566.93333,790.4 1560,784.16 C1553.76,777.226667 1545.09333,773.76 1534,773.76 C1520.82667,773.76 1510.08,777.92 1501.76,786.24 C1493.44,794.56 1489.28,805.653333 1489.28,819.52 C1489.28,838.933333 1496.21333,854.533333 1510.08,866.32 C1519.09333,873.253333 1528.8,878.106667 1539.2,880.88 Z" id="RMJ"></path>
            <path d="M128.704,983.4 L128.704,971.304 L108.4,971.304 L108.4,916.008 L141.664,916.008 C156.784,916.008 168.412,912.3 176.548,904.884 C184.684,897.468 188.752,886.992 188.752,873.456 C188.752,860.064 184.9,849.912 177.196,843 C169.492,836.088 158.08,832.632 142.96,832.632 L142.96,832.632 L64.984,832.632 L64.984,844.728 L80.968,844.728 L80.968,971.304 L64.984,971.304 L64.984,983.4 L128.704,983.4 Z M136.48,902.616 L108.4,902.616 L108.4,846.024 L136.48,846.024 C144.112,846.024 149.98,848.076 154.084,852.18 C158.188,856.284 160.24,861.864 160.24,868.92 L160.24,868.92 L160.24,879.72 C160.24,886.776 158.188,892.356 154.084,896.46 C149.98,900.564 144.112,902.616 136.48,902.616 L136.48,902.616 Z M260.032,983.4 L260.032,971.304 L245.56,971.304 L245.56,904.992 C245.56,901.68 246.244,898.8 247.612,896.352 C248.98,893.904 250.816,891.888 253.12,890.304 C255.424,888.72 257.944,887.532 260.68,886.74 C263.416,885.948 266.224,885.552 269.104,885.552 C276.88,885.552 282.532,887.676 286.06,891.924 C289.588,896.172 291.352,902.76 291.352,911.688 L291.352,911.688 L291.352,971.304 L276.88,971.304 L276.88,983.4 L332.176,983.4 L332.176,971.304 L317.272,971.304 L317.272,910.392 C317.272,896.424 314.356,885.948 308.524,878.964 C302.692,871.98 292.792,868.488 278.824,868.488 C274.36,868.488 270.364,869.064 266.836,870.216 C263.308,871.368 260.212,872.88 257.548,874.752 C254.884,876.624 252.652,878.748 250.852,881.124 C249.052,883.5 247.648,885.912 246.64,888.36 L246.64,888.36 L245.56,888.36 L245.56,817.08 L204.736,825.072 L204.736,835.008 L219.64,837.816 L219.64,971.304 L204.736,971.304 L204.736,983.4 L260.032,983.4 Z M402.16,985.992 C410.224,985.992 417.604,984.624 424.3,981.888 C430.996,979.152 436.72,975.264 441.472,970.224 C446.224,965.184 449.896,959.028 452.488,951.756 C455.08,944.484 456.376,936.312 456.376,927.24 C456.376,918.168 455.08,909.996 452.488,902.724 C449.896,895.452 446.224,889.296 441.472,884.256 C436.72,879.216 430.996,875.328 424.3,872.592 C417.604,869.856 410.224,868.488 402.16,868.488 C394.096,868.488 386.716,869.856 380.02,872.592 C373.324,875.328 367.6,879.216 362.848,884.256 C358.096,889.296 354.424,895.452 351.832,902.724 C349.24,909.996 347.944,918.168 347.944,927.24 C347.944,936.312 349.24,944.484 351.832,951.756 C354.424,959.028 358.096,965.184 362.848,970.224 C367.6,975.264 373.324,979.152 380.02,981.888 C386.716,984.624 394.096,985.992 402.16,985.992 Z M402.16,972.6 C393.232,972.6 386.68,969.9 382.504,964.5 C378.328,959.1 376.24,951.936 376.24,943.008 L376.24,943.008 L376.24,911.472 C376.24,902.544 378.328,895.38 382.504,889.98 C386.68,884.58 393.232,881.88 402.16,881.88 C411.088,881.88 417.64,884.58 421.816,889.98 C425.992,895.38 428.08,902.544 428.08,911.472 L428.08,911.472 L428.08,943.008 C428.08,951.936 425.992,959.1 421.816,964.5 C417.64,969.9 411.088,972.6 402.16,972.6 Z M511.024,985.128 C517.216,985.128 523.12,984.66 528.736,983.724 C534.352,982.788 538.384,981.744 540.832,980.592 L540.832,980.592 L540.832,970.44 L513.4,970.44 L513.4,884.256 L540.832,884.256 L540.832,871.08 L513.4,871.08 L513.4,841.056 L500.008,841.056 L492.88,860.064 C492.16,861.936 491.404,863.556 490.612,864.924 C489.82,866.292 488.848,867.444 487.696,868.38 C486.544,869.316 485.032,870 483.16,870.432 C481.288,870.864 478.984,871.08 476.248,871.08 L476.248,871.08 L472.576,871.08 L472.576,884.256 L487.48,884.256 L487.48,963.096 C487.48,970.872 489.244,976.488 492.772,979.944 C496.3,983.4 502.384,985.128 511.024,985.128 Z M609.088,985.992 C617.152,985.992 624.532,984.624 631.228,981.888 C637.924,979.152 643.648,975.264 648.4,970.224 C653.152,965.184 656.824,959.028 659.416,951.756 C662.008,944.484 663.304,936.312 663.304,927.24 C663.304,918.168 662.008,909.996 659.416,902.724 C656.824,895.452 653.152,889.296 648.4,884.256 C643.648,879.216 637.924,875.328 631.228,872.592 C624.532,869.856 617.152,868.488 609.088,868.488 C601.024,868.488 593.644,869.856 586.948,872.592 C580.252,875.328 574.528,879.216 569.776,884.256 C565.024,889.296 561.352,895.452 558.76,902.724 C556.168,909.996 554.872,918.168 554.872,927.24 C554.872,936.312 556.168,944.484 558.76,951.756 C561.352,959.028 565.024,965.184 569.776,970.224 C574.528,975.264 580.252,979.152 586.948,981.888 C593.644,984.624 601.024,985.992 609.088,985.992 Z M609.088,972.6 C600.16,972.6 593.608,969.9 589.432,964.5 C585.256,959.1 583.168,951.936 583.168,943.008 L583.168,943.008 L583.168,911.472 C583.168,902.544 585.256,895.38 589.432,889.98 C593.608,884.58 600.16,881.88 609.088,881.88 C618.016,881.88 624.568,884.58 628.744,889.98 C632.92,895.38 635.008,902.544 635.008,911.472 L635.008,911.472 L635.008,943.008 C635.008,951.936 632.92,959.1 628.744,964.5 C624.568,969.9 618.016,972.6 609.088,972.6 Z M731.776,1029.192 C751.504,1029.192 766.3,1025.88 776.164,1019.256 C786.028,1012.632 790.96,1003.704 790.96,992.472 C790.96,982.968 787.72,975.516 781.24,970.116 C774.76,964.716 764.32,962.016 749.92,962.016 L749.92,962.016 L724.216,962.016 C718.312,962.016 714.1,961.296 711.58,959.856 C709.06,958.416 707.8,956.04 707.8,952.728 C707.8,950.136 708.808,947.796 710.824,945.708 C712.84,943.62 715.36,942.144 718.384,941.28 C722.704,942.144 727.384,942.576 732.424,942.576 C739.336,942.576 745.636,941.748 751.324,940.092 C757.012,938.436 761.908,935.988 766.012,932.748 C770.116,929.508 773.284,925.62 775.516,921.084 C777.748,916.548 778.864,911.328 778.864,905.424 C778.864,899.664 777.892,894.876 775.948,891.06 C774.004,887.244 771.664,883.968 768.928,881.232 L768.928,881.232 L768.928,873.024 L769.576,873.024 C770.872,874.608 772.492,875.796 774.436,876.588 C776.38,877.38 778.432,877.776 780.592,877.776 C784.624,877.776 787.828,876.66 790.204,874.428 C792.58,872.196 793.768,869.208 793.768,865.464 C793.768,861.72 792.58,858.732 790.204,856.5 C787.828,854.268 784.624,853.152 780.592,853.152 C775.264,853.152 770.872,854.88 767.416,858.336 C763.96,861.792 762.088,867.696 761.8,876.048 C757.912,873.744 753.52,871.908 748.624,870.54 C743.728,869.172 738.256,868.488 732.208,868.488 C725.44,868.488 719.212,869.316 713.524,870.972 C707.836,872.628 702.94,875.076 698.836,878.316 C694.732,881.556 691.564,885.48 689.332,890.088 C687.1,894.696 685.984,899.88 685.984,905.64 C685.984,913.704 688.036,920.472 692.14,925.944 C696.244,931.416 701.896,935.592 709.096,938.472 L709.096,938.472 L709.096,939.552 C703.48,940.848 698.62,943.26 694.516,946.788 C690.412,950.316 688.36,955.176 688.36,961.368 C688.36,966.552 689.728,970.836 692.464,974.22 C695.2,977.604 699.016,979.944 703.912,981.24 L703.912,981.24 L703.912,982.104 C700.744,982.824 697.72,983.796 694.84,985.02 C691.96,986.244 689.404,987.756 687.172,989.556 C684.94,991.356 683.176,993.408 681.88,995.712 C680.584,998.016 679.936,1000.536 679.936,1003.272 C679.936,1007.304 680.8,1010.904 682.528,1014.072 C684.256,1017.24 687.136,1019.94 691.168,1022.172 C695.2,1024.404 700.528,1026.132 707.152,1027.356 C713.776,1028.58 721.984,1029.192 731.776,1029.192 Z M732.424,930.48 C725.656,930.48 720.616,928.608 717.304,924.864 C713.992,921.12 712.336,915.792 712.336,908.88 L712.336,908.88 L712.336,902.4 C712.336,895.488 713.992,890.16 717.304,886.416 C720.616,882.672 725.656,880.8 732.424,880.8 C739.192,880.8 744.232,882.672 747.544,886.416 C750.856,890.16 752.512,895.488 752.512,902.4 L752.512,902.4 L752.512,908.88 C752.512,915.792 750.856,921.12 747.544,924.864 C744.232,928.608 739.192,930.48 732.424,930.48 Z M739.336,1016.664 L727.24,1016.664 C718.888,1016.664 712.516,1015.404 708.124,1012.884 C703.732,1010.364 701.536,1006.512 701.536,1001.328 C701.536,997.872 702.292,994.848 703.804,992.256 C705.316,989.664 707.8,987.36 711.256,985.344 L711.256,985.344 L747.112,985.344 C755.032,985.344 760.756,986.46 764.284,988.692 C767.812,990.924 769.576,994.56 769.576,999.6 C769.576,1005.072 766.948,1009.284 761.692,1012.236 C756.436,1015.188 748.984,1016.664 739.336,1016.664 L739.336,1016.664 Z M866.128,983.4 L866.128,971.304 L846.904,971.304 L846.904,904.56 C846.904,901.968 847.552,899.304 848.848,896.568 C850.144,893.832 851.836,891.348 853.924,889.116 C856.012,886.884 858.388,885.084 861.052,883.716 C863.716,882.348 866.416,881.664 869.152,881.664 C870.16,881.664 870.952,881.7 871.528,881.772 C872.104,881.844 872.608,881.952 873.04,882.096 L873.04,882.096 L873.256,882.744 C871.816,883.032 870.556,884.04 869.476,885.768 C868.396,887.496 867.856,889.584 867.856,892.032 C867.856,895.632 869.188,898.656 871.852,901.104 C874.516,903.552 878.152,904.776 882.76,904.776 C887.368,904.776 891.004,903.336 893.668,900.456 C896.332,897.576 897.664,893.544 897.664,888.36 C897.664,882.024 895.648,877.128 891.616,873.672 C887.584,870.216 882.112,868.488 875.2,868.488 C867.568,868.488 861.52,870.54 857.056,874.644 C852.592,878.748 849.352,883.392 847.336,888.576 L847.336,888.576 L846.256,888.576 L846.256,868.488 L806.08,876.48 L806.08,886.416 L820.984,889.224 L820.984,971.304 L806.08,971.304 L806.08,983.4 L866.128,983.4 Z M997.024,985.992 C1000.768,985.992 1004.332,985.56 1007.716,984.696 C1011.1,983.832 1013.8,982.824 1015.816,981.672 L1015.816,981.672 L1015.816,971.52 L1000.912,971.52 L1000.912,904.992 C1000.912,893.472 997.348,884.508 990.22,878.1 C983.092,871.692 972.616,868.488 958.792,868.488 C951.304,868.488 944.716,869.244 939.028,870.756 C933.34,872.268 928.588,874.284 924.772,876.804 C920.956,879.324 918.076,882.168 916.132,885.336 C914.188,888.504 913.216,891.816 913.216,895.272 C913.216,899.592 914.512,903.048 917.104,905.64 C919.696,908.232 923.152,909.528 927.472,909.528 C931.792,909.528 935.248,908.232 937.84,905.64 C940.432,903.048 941.728,899.592 941.728,895.272 C941.728,892.104 940.972,889.656 939.46,887.928 C937.948,886.2 936.4,884.976 934.816,884.256 L934.816,884.256 L934.816,883.392 C936.832,882.528 939.172,881.808 941.836,881.232 C944.5,880.656 947.488,880.368 950.8,880.368 C959.152,880.368 965.272,882.672 969.16,887.28 C973.048,891.888 974.992,898.512 974.992,907.152 L974.992,907.152 L974.992,921.408 L959.44,921.408 C941.584,921.408 928.66,924.216 920.668,929.832 C912.676,935.448 908.68,943.728 908.68,954.672 C908.68,964.464 911.596,972.132 917.428,977.676 C923.26,983.22 931.864,985.992 943.24,985.992 C948.28,985.992 952.636,985.452 956.308,984.372 C959.98,983.292 963.076,981.816 965.596,979.944 C968.116,978.072 970.168,976.02 971.752,973.788 C973.336,971.556 974.704,969.216 975.856,966.768 L975.856,966.768 L976.936,966.768 L976.936,967.2 C976.936,972.672 978.556,977.172 981.796,980.7 C985.036,984.228 990.112,985.992 997.024,985.992 Z M953.608,970.224 C947.848,970.224 943.312,969 940,966.552 C936.688,964.104 935.032,960.36 935.032,955.32 L935.032,955.32 L935.032,951.432 C935.032,945.24 937.048,940.524 941.08,937.284 C945.112,934.044 952.096,932.424 962.032,932.424 L962.032,932.424 L974.992,932.424 L974.992,951.432 C974.992,958.056 972.976,962.844 968.944,965.796 C964.912,968.748 959.8,970.224 953.608,970.224 Z M1089.904,1026.6 L1089.904,1014.504 L1070.68,1014.504 L1070.68,966.984 L1071.76,966.984 C1073.92,972.168 1077.628,976.632 1082.884,980.376 C1088.14,984.12 1095.088,985.992 1103.728,985.992 C1110.784,985.992 1117.156,984.66 1122.844,981.996 C1128.532,979.332 1133.392,975.48 1137.424,970.44 C1141.456,965.4 1144.552,959.244 1146.712,951.972 C1148.872,944.7 1149.952,936.456 1149.952,927.24 C1149.952,918.024 1148.872,909.78 1146.712,902.508 C1144.552,895.236 1141.456,889.08 1137.424,884.04 C1133.392,879 1128.532,875.148 1122.844,872.484 C1117.156,869.82 1110.784,868.488 1103.728,868.488 C1095.232,868.488 1088.356,870.396 1083.1,874.212 C1077.844,878.028 1074.064,882.6 1071.76,887.928 L1071.76,887.928 L1070.68,887.928 L1070.68,868.488 L1029.856,876.48 L1029.856,886.416 L1044.76,889.224 L1044.76,1014.504 L1029.856,1014.504 L1029.856,1026.6 L1089.904,1026.6 Z M1095.52,969.792 C1092.208,969.792 1089.076,969.324 1086.124,968.388 C1083.172,967.452 1080.544,966.084 1078.24,964.284 C1075.936,962.484 1074.1,960.324 1072.732,957.804 C1071.364,955.284 1070.68,952.368 1070.68,949.056 L1070.68,949.056 L1070.68,905.424 C1070.68,902.256 1071.364,899.376 1072.732,896.784 C1074.1,894.192 1075.936,891.996 1078.24,890.196 C1080.544,888.396 1083.172,887.028 1086.124,886.092 C1089.076,885.156 1092.208,884.688 1095.52,884.688 C1103.728,884.688 1110.244,887.424 1115.068,892.896 C1119.892,898.368 1122.304,905.856 1122.304,915.36 L1122.304,915.36 L1122.304,939.12 C1122.304,948.624 1119.892,956.112 1115.068,961.584 C1110.244,967.056 1103.728,969.792 1095.52,969.792 Z M1222.096,983.4 L1222.096,971.304 L1207.624,971.304 L1207.624,904.992 C1207.624,901.68 1208.308,898.8 1209.676,896.352 C1211.044,893.904 1212.88,891.888 1215.184,890.304 C1217.488,888.72 1220.008,887.532 1222.744,886.74 C1225.48,885.948 1228.288,885.552 1231.168,885.552 C1238.944,885.552 1244.596,887.676 1248.124,891.924 C1251.652,896.172 1253.416,902.76 1253.416,911.688 L1253.416,911.688 L1253.416,971.304 L1238.944,971.304 L1238.944,983.4 L1294.24,983.4 L1294.24,971.304 L1279.336,971.304 L1279.336,910.392 C1279.336,896.424 1276.42,885.948 1270.588,878.964 C1264.756,871.98 1254.856,868.488 1240.888,868.488 C1236.424,868.488 1232.428,869.064 1228.9,870.216 C1225.372,871.368 1222.276,872.88 1219.612,874.752 C1216.948,876.624 1214.716,878.748 1212.916,881.124 C1211.116,883.5 1209.712,885.912 1208.704,888.36 L1208.704,888.36 L1207.624,888.36 L1207.624,817.08 L1166.8,825.072 L1166.8,835.008 L1181.704,837.816 L1181.704,971.304 L1166.8,971.304 L1166.8,983.4 L1222.096,983.4 Z M1325.992,1029.192 C1330.744,1029.192 1334.992,1028.364 1338.736,1026.708 C1342.48,1025.052 1345.756,1022.82 1348.564,1020.012 C1351.372,1017.204 1353.856,1013.964 1356.016,1010.292 C1358.176,1006.62 1360.048,1002.84 1361.632,998.952 L1361.632,998.952 L1408.504,883.392 L1419.304,883.392 L1419.304,871.08 L1378.912,871.08 L1378.912,883.392 L1392.952,883.392 L1366.6,956.4 L1365.52,956.4 L1338.088,883.392 L1352.128,883.392 L1352.128,871.08 L1299.208,871.08 L1299.208,883.392 L1310.008,883.392 L1352.992,988.152 L1349.32,997.44 C1343.56,1011.984 1336.792,1019.256 1329.016,1019.256 C1327.576,1019.256 1326.208,1019.04 1324.912,1018.608 L1324.912,1018.608 L1324.696,1017.744 C1325.848,1017.024 1326.892,1015.872 1327.828,1014.288 C1328.764,1012.704 1329.232,1010.832 1329.232,1008.672 C1329.232,1004.784 1328.044,1001.544 1325.668,998.952 C1323.292,996.36 1320.016,995.064 1315.84,995.064 C1311.232,995.064 1307.668,996.396 1305.148,999.06 C1302.628,1001.724 1301.368,1005.288 1301.368,1009.752 C1301.368,1015.224 1303.42,1019.832 1307.524,1023.576 C1311.628,1027.32 1317.784,1029.192 1325.992,1029.192 Z" id="Photography"></path>
        </g>
    </g>
</svg>
